<svg width="512" height="512" viewBox="0 0 24 24" fill="none" xmlns="http://www.w3.org/2000/svg">
<rect width="24" height="24" rx="6" fill="#2563eb"/>
<path d="M20 6H8C6.89543 6 6 6.89543 6 8V17C6 18.1046 6.89543 19 8 19H20C21.1046 19 22 18.1046 22 17V8C22 6.89543 21.1046 6 20 6Z" fill="white" fill-opacity="0.9"/>
<path d="M7 15H3C2.44772 15 2 14.5523 2 14V8C2 6.34315 3.34315 5 5 5H18C18.5523 5 19 5.44772 19 6C19 6.55228 18.5523 7 18 7H5C4.44772 7 4 7.44772 4 8V14C4 14.5523 3.55228 15 3 15H7Z" fill="white"/>
<circle cx="17" cy="12" r="2" fill="#2563eb"/>
</svg>
